{
  "accessors": [
    {
      "bufferView": 0,
      "componentType": 5126,
      "count": 20452,
      "max": [
        111.11671447753906,
        112.88404083251953,
        110.87483978271484
      ],
      "min": [
        -58.63240051269531,
        -111.31400299072266,
        -162.4949951171875
      ],
      "type": "VEC3"
    },
    {
      "bufferView": 1,
      "componentType": 5125,
      "count": 48866,
      "type": "SCALAR"
    },
    {
      "bufferView": 2,
      "componentType": 5126,
      "count": 20452,
      "type": "VEC3"
    },
    {
      "bufferView": 3,
      "componentType": 5126,
      "count": 20452,
      "type": "VEC4"
    },
    {
      "bufferView": 4,
      "componentType": 5126,
      "count": 20452,
      "type": "VEC2"
    },
    {
      "bufferView": 5,
      "componentType": 5126,
      "count": 386,
      "max": [
        83.8744888305664,
        -108.79570007324219,
        45.437583923339844
      ],
      "min": [
        -45.10329818725586,
        -112.36100006103516,
        -83.54019927978516
      ],
      "type": "VEC3"
    },
    {
      "bufferView": 6,
      "componentType": 5125,
      "count": 1020,
      "type": "SCALAR"
    },
    {
      "bufferView": 7,
      "componentType": 5126,
      "count": 386,
      "type": "VEC3"
    },
    {
      "bufferView": 8,
      "componentType": 5126,
      "count": 386,
      "type": "VEC4"
    },
    {
      "bufferView": 9,
      "componentType": 5126,
      "count": 386,
      "type": "VEC2"
    }
  ],
  "asset": {
    "version": "2.0"
  },
  "bufferViews": [
    {
      "buffer": 0,
      "byteLength": 245424,
      "target": 34962
    },
    {
      "buffer": 1,
      "byteLength": 195464,
      "target": 34963
    },
    {
      "buffer": 2,
      "byteLength": 245424,
      "target": 34962
    },
    {
      "buffer": 3,
      "byteLength": 327232,
      "target": 34962
    },
    {
      "buffer": 4,
      "byteLength": 163616,
      "target": 34962
    },
    {
      "buffer": 5,
      "byteLength": 4632,
      "target": 34962
    },
    {
      "buffer": 6,
      "byteLength": 4080,
      "target": 34963
    },
    {
      "buffer": 7,
      "byteLength": 4632,
      "target": 34962
    },
    {
      "buffer": 8,
      "byteLength": 6176,
      "target": 34962
    },
    {
      "buffer": 9,
      "byteLength": 3088,
      "target": 34962
    }
  ],
  "buffers": [
    {
      "byteLength": 245424,
      "uri": "data:application/octet-stream;base64,"
    },
    {
      "byteLength": 195464,
      "uri": "data:application/octet-stream;base64,"
    },
    {
      "byteLength": 245424,
      "uri": "data:application/octet-stream;base64,"
    },
    {
      "byteLength": 327232,
      "uri": "data:application/octet-stream;base64,"
    },
    {
      "byteLength": 163616,
      "uri": "data:application/octet-stream;base64,"
    },
    {
      "byteLength": 4632,
      "uri": "data:application/octet-stream;base64,"
    },
    {
      "byteLength": 4080,
      "uri": "data:application/octet-stream;base64,"
    },
    {
      "byteLength": 4632,
      "uri": "data:application/octet-stream;base64,"
    },
    {
      "byteLength": 6176,
      "uri": "data:application/octet-stream;base64,"
    },
    {
      "byteLength": 3088,
      "uri": "data:application/octet-stream;base64,"
    }
  ],
  "materials": [
    {
      "doubleSided": true,
      "name": "watch",
      "pbrMetallicRoughness": {
        "baseColorFactor": [
          0.800000011920929,
          0.800000011920929,
          0.800000011920929,
          1.0
        ]
      }
    }
  ],
  "meshes": [
    {
      "name": "Object005_watch_0",
      "primitives": [
        {
          "attributes": {
            "NORMAL": 2,
            "POSITION": 0,
            "TANGENT": 3,
            "TEXCOORD_0": 4
          },
          "indices": 1,
          "material": 0,
          "mode": 5
        }
      ]
    },
    {
      "name": "Object006_glass_0",
      "primitives": [
        {
          "attributes": {
            "NORMAL": 7,
            "POSITION": 5,
            "TANGENT": 8,
            "TEXCOORD_0": 9
          },
          "indices": 6,
          "material": 0,
          "mode": 5
        }
      ]
    }
  ],
  "nodes": [
    {
      "mesh": 0,
      "name": "Object005_watch_0"
    },
    {
      "children": [
        0
      ],
      "name": "Object005",
      "rotation": [
        -0.7071067811865475,
        0.0,
        0.0,
        0.7071067811865476
      ],
      "scale": [
        1.0,
        1.0,
        1.0
      ],
      "translation": [
        0.0,
        0.0,
        0.0
      ]
    },
    {
      "mesh": 1,
      "name": "Object006_glass_0"
    },
    {
      "children": [
        2
      ],
      "name": "Object006",
      "rotation": [
        -0.7071067811865475,
        0.0,
        0.0,
        0.7071067811865476
      ],
      "scale": [
        1.0,
        1.0,
        1.0
      ],
      "translation": [
        -1.0801000595092773,
        0.0,
        3.980640144764236e-14
      ]
    },
    {
      "children": [
        1,
        3
      ],
      "name": "RootNode"
    },
    {
      "children": [
        4
      ],
      "name": "newwww.fbx",
      "rotation": [
        1.1102230246251565e-16,
        0.0,
        0.0,
        1.0
      ],
      "scale": [
        1.0,
        1.0,
        1.0
      ],
      "translation": [
        0.0,
        0.0,
        0.0
      ]
    }
  ],
  "scene": 0,
  "scenes": [
    {
      "nodes": [
        5
      ]
    }
  ]
}
